# xmcd
#
# Track frame offsets:
#	150
#	14422
#	29482
#	42380
#	54362
#	69342
#	84555
#	99000
#	108797
#	126292
#	139702
#	153700
#
# Disc length: 2232 seconds
#
# Revision: 0
# Processed by: cddbd v1.4PL0 Copyright (c) Steve Scherf et al.
# Submitted via: EasyCDDAExtractor 5.0.0.0
#
DISCID=9608b60c
DTITLE=The Honeydippers - The 12 Days of Christmas
DYEAR=1997
DGENRE=Country
TTITLE0=Jingle Bells
TTITLE1=Rock, Santa, Rock
TTITLE2=I'll Be Home For Christmas
TTITLE3=Rockin' Around the Christmas Tree
TTITLE4=Silent Night
TTITLE5=Hoy, Hoy, Hoy (Rockin' on Xmas Eve)
TTITLE6=Silver and Gold
TTITLE7=The Night Before Christmas
TTITLE8=White Christmas
TTITLE9=Under the Christmas Tree
TTITLE10=Another Rock and Roll Christmas
TTITLE11=We Three Kings
EXTD=
EXTT0=
EXTT1=
EXTT2=
EXTT3=
EXTT4=
EXTT5=
EXTT6=
EXTT7=
EXTT8=
EXTT9=
EXTT10=
EXTT11=
PLAYORDER=
